<svg id="visual" viewBox="0 0 900 600" width="900" height="600" xmlns="http://www.w3.org/2000/svg" xmlns:xlink="http://www.w3.org/1999/xlink" version="1.1"><rect x="0" y="0" width="900" height="600" fill="#ffffff"></rect><path d="M0 499L21.5 503.7C43 508.3 86 517.7 128.8 508.3C171.7 499 214.3 471 257.2 477.2C300 483.3 343 523.7 385.8 538.2C428.7 552.7 471.3 541.3 514.2 525.7C557 510 600 490 642.8 495.5C685.7 501 728.3 532 771.2 537C814 542 857 521 878.5 510.5L900 500L900 601L878.5 601C857 601 814 601 771.2 601C728.3 601 685.7 601 642.8 601C600 601 557 601 514.2 601C471.3 601 428.7 601 385.8 601C343 601 300 601 257.2 601C214.3 601 171.7 601 128.8 601C86 601 43 601 21.5 601L0 601Z" fill="#4FACF7" stroke-linecap="round" stroke-linejoin="miter"></path></svg>